<?xml version="1.0" encoding="UTF-8"?>
<!DOCTYPE svg PUBLIC "-//W3C//DTD SVG 1.1//EN" "http://www.w3.org/Graphics/SVG/1.1/DTD/svg11.dtd">
<svg xmlns="http://www.w3.org/2000/svg" version="1.1" width="512px" height="512px" style="shape-rendering:geometricPrecision; text-rendering:geometricPrecision; image-rendering:optimizeQuality; fill-rule:evenodd; clip-rule:evenodd" xmlns:xlink="http://www.w3.org/1999/xlink">
<g><path style="opacity:1" fill="#3da8ad" d="M 362.5,-0.5 C 369.5,-0.5 376.5,-0.5 383.5,-0.5C 440.53,6.02494 480.364,35.6916 503,88.5C 506.648,99.429 509.481,110.429 511.5,121.5C 511.5,132.833 511.5,144.167 511.5,155.5C 508.092,180.987 498.592,203.987 483,224.5C 452.53,256.637 421.697,288.471 390.5,320C 389.552,320.483 388.552,320.649 387.5,320.5C 393.056,290.558 391.556,260.891 383,231.5C 382.333,228.833 382.333,226.167 383,223.5C 397.667,208.167 412.333,192.833 427,177.5C 441.612,158.102 445.278,136.769 438,113.5C 424.979,83.7305 402.146,69.2305 369.5,70C 355.095,71.8708 342.428,77.5375 331.5,87C 302.333,116.833 273.167,146.667 244,176.5C 236.099,185.296 229.433,194.963 224,205.5C 214.272,239.994 224.439,266.828 254.5,286C 256.152,287.47 257.152,289.303 257.5,291.5C 247.043,310.144 233.71,326.644 217.5,341C 215.167,341.667 212.833,341.667 210.5,341C 166.45,308.382 146.617,264.549 151,209.5C 154.208,179.85 165.541,153.85 185,131.5C 219.221,95.9459 254.054,61.1126 289.5,27C 311.477,11.3989 335.811,2.23225 362.5,-0.5 Z"/></g>
<g><path style="opacity:1" fill="#3da8ad" d="M 147.5,511.5 C 140.833,511.5 134.167,511.5 127.5,511.5C 55.2262,501.893 12.5595,461.226 -0.5,389.5C -0.5,378.167 -0.5,366.833 -0.5,355.5C 3.45619,325.921 15.2895,299.921 35,277.5C 63.3191,248.014 92.1524,219.014 121.5,190.5C 121.833,191.333 122.167,192.167 122.5,193C 119.812,207.725 118.978,222.558 120,237.5C 121.522,254.095 124.188,270.428 128,286.5C 114.396,302.106 100.063,317.106 85,331.5C 63.8426,359.363 63.176,387.697 83,416.5C 106.039,441.384 133.206,447.217 164.5,434C 168.167,431.667 171.833,429.333 175.5,427C 203.305,398.195 231.472,369.695 260,341.5C 270.373,331.082 279.04,319.415 286,306.5C 296.781,270.503 286.114,242.837 254,223.5C 253.333,220.833 253.333,218.167 254,215.5C 263.839,196.329 277.839,180.996 296,169.5C 301.664,171.826 306.831,174.993 311.5,179C 357.08,221.77 370.913,273.27 353,333.5C 348.475,346.222 342.141,357.889 334,368.5C 298.927,407.909 262.093,445.742 223.5,482C 200.84,498.834 175.506,508.668 147.5,511.5 Z"/></g>
</svg>
